<mxfile host="app.diagrams.net" modified="2023-04-20T12:15:27.683Z" agent="Mozilla/5.0 (Windows NT 10.0; Win64; x64) AppleWebKit/537.36 (KHTML, like Gecko) Chrome/112.0.0.0 Safari/537.36" etag="VSnbhHCCFtxc6LvKo6Yb" version="21.2.1" type="device">
  <diagram id="YaYckhyg8qfFHChC-3QF" name="Trang-1">
    <mxGraphModel dx="1434" dy="1933" grid="0" gridSize="10" guides="1" tooltips="1" connect="1" arrows="1" fold="1" page="1" pageScale="1" pageWidth="827" pageHeight="1169" math="0" shadow="0">
      <root>
        <mxCell id="0" />
        <mxCell id="1" parent="0" />
        <mxCell id="4VSOPjwCIJhu8ye86NHm-1" value="Customer" style="shape=umlActor;verticalLabelPosition=bottom;verticalAlign=top;html=1;outlineConnect=0;" parent="1" vertex="1">
          <mxGeometry x="80" y="40" width="40" height="70" as="geometry" />
        </mxCell>
        <mxCell id="4VSOPjwCIJhu8ye86NHm-2" value="" style="rounded=0;whiteSpace=wrap;html=1;" parent="1" vertex="1">
          <mxGeometry x="240" y="-120" width="200" height="960" as="geometry" />
        </mxCell>
        <mxCell id="4VSOPjwCIJhu8ye86NHm-4" value="" style="rounded=0;whiteSpace=wrap;html=1;" parent="1" vertex="1">
          <mxGeometry x="240" y="-120" width="90" height="50" as="geometry" />
        </mxCell>
        <mxCell id="4VSOPjwCIJhu8ye86NHm-5" value="Đăng nhập" style="ellipse;whiteSpace=wrap;html=1;" parent="1" vertex="1">
          <mxGeometry x="280" y="-60" width="120" height="80" as="geometry" />
        </mxCell>
        <mxCell id="4VSOPjwCIJhu8ye86NHm-6" value="Đăng xuất" style="ellipse;whiteSpace=wrap;html=1;" parent="1" vertex="1">
          <mxGeometry x="280" y="30" width="120" height="80" as="geometry" />
        </mxCell>
        <mxCell id="4VSOPjwCIJhu8ye86NHm-7" value="Gửi yêu cầu" style="ellipse;whiteSpace=wrap;html=1;" parent="1" vertex="1">
          <mxGeometry x="280" y="120" width="120" height="80" as="geometry" />
        </mxCell>
        <mxCell id="4VSOPjwCIJhu8ye86NHm-8" value="Chỉnh sửa yêu cầu" style="ellipse;whiteSpace=wrap;html=1;" parent="1" vertex="1">
          <mxGeometry x="280" y="210" width="120" height="80" as="geometry" />
        </mxCell>
        <mxCell id="4VSOPjwCIJhu8ye86NHm-9" value="Danh sách yêu cầu" style="ellipse;whiteSpace=wrap;html=1;" parent="1" vertex="1">
          <mxGeometry x="280" y="300" width="120" height="80" as="geometry" />
        </mxCell>
        <mxCell id="4VSOPjwCIJhu8ye86NHm-10" value="Tìm kiếm" style="ellipse;whiteSpace=wrap;html=1;" parent="1" vertex="1">
          <mxGeometry x="280" y="390" width="120" height="80" as="geometry" />
        </mxCell>
        <mxCell id="4VSOPjwCIJhu8ye86NHm-11" value="Cập nhật yêu cầu" style="ellipse;whiteSpace=wrap;html=1;" parent="1" vertex="1">
          <mxGeometry x="280" y="480" width="120" height="80" as="geometry" />
        </mxCell>
        <mxCell id="4VSOPjwCIJhu8ye86NHm-13" value="Phòng CNTT&lt;br&gt;" style="shape=umlActor;verticalLabelPosition=bottom;verticalAlign=top;html=1;outlineConnect=0;" parent="1" vertex="1">
          <mxGeometry x="670" y="70" width="40" height="70" as="geometry" />
        </mxCell>
        <mxCell id="4VSOPjwCIJhu8ye86NHm-15" value="" style="endArrow=classic;html=1;rounded=0;entryX=1;entryY=0.5;entryDx=0;entryDy=0;exitX=0;exitY=0.3333333333333333;exitDx=0;exitDy=0;exitPerimeter=0;" parent="1" source="4VSOPjwCIJhu8ye86NHm-13" target="4VSOPjwCIJhu8ye86NHm-8" edge="1">
          <mxGeometry width="50" height="50" relative="1" as="geometry">
            <mxPoint x="390" y="220" as="sourcePoint" />
            <mxPoint x="440" y="170" as="targetPoint" />
          </mxGeometry>
        </mxCell>
        <mxCell id="4VSOPjwCIJhu8ye86NHm-16" value="" style="endArrow=classic;html=1;rounded=0;entryX=1;entryY=0.5;entryDx=0;entryDy=0;exitX=0;exitY=1;exitDx=0;exitDy=0;exitPerimeter=0;" parent="1" source="4VSOPjwCIJhu8ye86NHm-13" target="4VSOPjwCIJhu8ye86NHm-9" edge="1">
          <mxGeometry width="50" height="50" relative="1" as="geometry">
            <mxPoint x="680" y="103" as="sourcePoint" />
            <mxPoint x="410" y="-10" as="targetPoint" />
          </mxGeometry>
        </mxCell>
        <mxCell id="4VSOPjwCIJhu8ye86NHm-17" value="" style="endArrow=classic;html=1;rounded=0;entryX=1;entryY=0.5;entryDx=0;entryDy=0;exitX=0.5;exitY=0.5;exitDx=0;exitDy=0;exitPerimeter=0;" parent="1" source="4VSOPjwCIJhu8ye86NHm-13" target="4VSOPjwCIJhu8ye86NHm-7" edge="1">
          <mxGeometry width="50" height="50" relative="1" as="geometry">
            <mxPoint x="680" y="103" as="sourcePoint" />
            <mxPoint x="410" y="260" as="targetPoint" />
          </mxGeometry>
        </mxCell>
        <mxCell id="4VSOPjwCIJhu8ye86NHm-19" value="Nhân viên&lt;br&gt;" style="shape=umlActor;verticalLabelPosition=bottom;verticalAlign=top;html=1;outlineConnect=0;" parent="1" vertex="1">
          <mxGeometry x="80" y="390" width="40" height="70" as="geometry" />
        </mxCell>
        <mxCell id="4VSOPjwCIJhu8ye86NHm-20" value="" style="endArrow=classic;html=1;rounded=0;exitX=1;exitY=0.3333333333333333;exitDx=0;exitDy=0;exitPerimeter=0;entryX=0;entryY=0.5;entryDx=0;entryDy=0;" parent="1" source="4VSOPjwCIJhu8ye86NHm-1" target="4VSOPjwCIJhu8ye86NHm-5" edge="1">
          <mxGeometry width="50" height="50" relative="1" as="geometry">
            <mxPoint x="390" y="320" as="sourcePoint" />
            <mxPoint x="440" y="270" as="targetPoint" />
          </mxGeometry>
        </mxCell>
        <mxCell id="4VSOPjwCIJhu8ye86NHm-21" value="" style="endArrow=classic;html=1;rounded=0;exitX=1;exitY=0.3333333333333333;exitDx=0;exitDy=0;exitPerimeter=0;entryX=0;entryY=0.5;entryDx=0;entryDy=0;" parent="1" source="4VSOPjwCIJhu8ye86NHm-1" target="4VSOPjwCIJhu8ye86NHm-6" edge="1">
          <mxGeometry width="50" height="50" relative="1" as="geometry">
            <mxPoint x="130" y="73" as="sourcePoint" />
            <mxPoint x="290" y="-10" as="targetPoint" />
          </mxGeometry>
        </mxCell>
        <mxCell id="4VSOPjwCIJhu8ye86NHm-22" value="" style="endArrow=classic;html=1;rounded=0;exitX=1;exitY=0.3333333333333333;exitDx=0;exitDy=0;exitPerimeter=0;entryX=0;entryY=0.5;entryDx=0;entryDy=0;" parent="1" source="4VSOPjwCIJhu8ye86NHm-1" target="4VSOPjwCIJhu8ye86NHm-7" edge="1">
          <mxGeometry width="50" height="50" relative="1" as="geometry">
            <mxPoint x="140" y="83" as="sourcePoint" />
            <mxPoint x="300" as="targetPoint" />
          </mxGeometry>
        </mxCell>
        <mxCell id="4VSOPjwCIJhu8ye86NHm-23" value="" style="endArrow=classic;html=1;rounded=0;exitX=1;exitY=0.3333333333333333;exitDx=0;exitDy=0;exitPerimeter=0;entryX=0;entryY=0.5;entryDx=0;entryDy=0;" parent="1" source="4VSOPjwCIJhu8ye86NHm-1" target="4VSOPjwCIJhu8ye86NHm-9" edge="1">
          <mxGeometry width="50" height="50" relative="1" as="geometry">
            <mxPoint x="150" y="93" as="sourcePoint" />
            <mxPoint x="310" y="10" as="targetPoint" />
          </mxGeometry>
        </mxCell>
        <mxCell id="4VSOPjwCIJhu8ye86NHm-25" value="" style="endArrow=classic;html=1;rounded=0;exitX=1;exitY=0.3333333333333333;exitDx=0;exitDy=0;exitPerimeter=0;entryX=0;entryY=0.5;entryDx=0;entryDy=0;" parent="1" source="4VSOPjwCIJhu8ye86NHm-19" target="4VSOPjwCIJhu8ye86NHm-5" edge="1">
          <mxGeometry width="50" height="50" relative="1" as="geometry">
            <mxPoint x="170" y="113" as="sourcePoint" />
            <mxPoint x="330" y="30" as="targetPoint" />
          </mxGeometry>
        </mxCell>
        <mxCell id="4VSOPjwCIJhu8ye86NHm-26" value="" style="endArrow=classic;html=1;rounded=0;exitX=1;exitY=0.3333333333333333;exitDx=0;exitDy=0;exitPerimeter=0;entryX=0;entryY=1;entryDx=0;entryDy=0;" parent="1" source="4VSOPjwCIJhu8ye86NHm-19" target="4VSOPjwCIJhu8ye86NHm-6" edge="1">
          <mxGeometry width="50" height="50" relative="1" as="geometry">
            <mxPoint x="180" y="123" as="sourcePoint" />
            <mxPoint x="340" y="40" as="targetPoint" />
          </mxGeometry>
        </mxCell>
        <mxCell id="4VSOPjwCIJhu8ye86NHm-27" value="" style="endArrow=classic;html=1;rounded=0;exitX=1;exitY=0.3333333333333333;exitDx=0;exitDy=0;exitPerimeter=0;entryX=0;entryY=0.5;entryDx=0;entryDy=0;" parent="1" source="4VSOPjwCIJhu8ye86NHm-19" target="4VSOPjwCIJhu8ye86NHm-8" edge="1">
          <mxGeometry width="50" height="50" relative="1" as="geometry">
            <mxPoint x="190" y="133" as="sourcePoint" />
            <mxPoint x="350" y="50" as="targetPoint" />
          </mxGeometry>
        </mxCell>
        <mxCell id="4VSOPjwCIJhu8ye86NHm-28" value="" style="endArrow=classic;html=1;rounded=0;exitX=1;exitY=0.3333333333333333;exitDx=0;exitDy=0;exitPerimeter=0;entryX=0;entryY=0.5;entryDx=0;entryDy=0;" parent="1" source="4VSOPjwCIJhu8ye86NHm-19" target="4VSOPjwCIJhu8ye86NHm-9" edge="1">
          <mxGeometry width="50" height="50" relative="1" as="geometry">
            <mxPoint x="200" y="143" as="sourcePoint" />
            <mxPoint x="360" y="60" as="targetPoint" />
          </mxGeometry>
        </mxCell>
        <mxCell id="4VSOPjwCIJhu8ye86NHm-29" value="" style="endArrow=classic;html=1;rounded=0;exitX=1;exitY=0.3333333333333333;exitDx=0;exitDy=0;exitPerimeter=0;entryX=0;entryY=0.5;entryDx=0;entryDy=0;" parent="1" source="4VSOPjwCIJhu8ye86NHm-19" target="4VSOPjwCIJhu8ye86NHm-11" edge="1">
          <mxGeometry width="50" height="50" relative="1" as="geometry">
            <mxPoint x="210" y="153" as="sourcePoint" />
            <mxPoint x="370" y="70" as="targetPoint" />
          </mxGeometry>
        </mxCell>
        <mxCell id="4VSOPjwCIJhu8ye86NHm-30" value="" style="endArrow=classic;html=1;rounded=0;entryX=1;entryY=0.5;entryDx=0;entryDy=0;" parent="1" target="4VSOPjwCIJhu8ye86NHm-10" edge="1">
          <mxGeometry width="50" height="50" relative="1" as="geometry">
            <mxPoint x="690" y="110" as="sourcePoint" />
            <mxPoint x="380" y="80" as="targetPoint" />
          </mxGeometry>
        </mxCell>
        <mxCell id="4VSOPjwCIJhu8ye86NHm-31" value="Báo cáo" style="ellipse;whiteSpace=wrap;html=1;" parent="1" vertex="1">
          <mxGeometry x="280" y="570" width="120" height="80" as="geometry" />
        </mxCell>
        <mxCell id="4VSOPjwCIJhu8ye86NHm-32" value="Sửa chữa" style="ellipse;whiteSpace=wrap;html=1;" parent="1" vertex="1">
          <mxGeometry x="280" y="660" width="120" height="80" as="geometry" />
        </mxCell>
        <mxCell id="4VSOPjwCIJhu8ye86NHm-33" value="Thông báo" style="ellipse;whiteSpace=wrap;html=1;" parent="1" vertex="1">
          <mxGeometry x="280" y="750" width="120" height="80" as="geometry" />
        </mxCell>
        <mxCell id="4VSOPjwCIJhu8ye86NHm-34" value="" style="endArrow=classic;html=1;rounded=0;entryX=1;entryY=0.5;entryDx=0;entryDy=0;exitX=0;exitY=1;exitDx=0;exitDy=0;exitPerimeter=0;" parent="1" source="4VSOPjwCIJhu8ye86NHm-13" target="4VSOPjwCIJhu8ye86NHm-33" edge="1">
          <mxGeometry width="50" height="50" relative="1" as="geometry">
            <mxPoint x="700" y="115" as="sourcePoint" />
            <mxPoint x="410" y="170" as="targetPoint" />
          </mxGeometry>
        </mxCell>
        <mxCell id="4VSOPjwCIJhu8ye86NHm-35" value="" style="endArrow=classic;html=1;rounded=0;entryX=1;entryY=0.5;entryDx=0;entryDy=0;exitX=0;exitY=1;exitDx=0;exitDy=0;exitPerimeter=0;" parent="1" source="4VSOPjwCIJhu8ye86NHm-13" target="4VSOPjwCIJhu8ye86NHm-32" edge="1">
          <mxGeometry width="50" height="50" relative="1" as="geometry">
            <mxPoint x="710" y="125" as="sourcePoint" />
            <mxPoint x="420" y="180" as="targetPoint" />
          </mxGeometry>
        </mxCell>
        <mxCell id="4VSOPjwCIJhu8ye86NHm-36" value="" style="endArrow=classic;html=1;rounded=0;entryX=0;entryY=0.5;entryDx=0;entryDy=0;exitX=1;exitY=0.3333333333333333;exitDx=0;exitDy=0;exitPerimeter=0;" parent="1" source="4VSOPjwCIJhu8ye86NHm-19" target="4VSOPjwCIJhu8ye86NHm-31" edge="1">
          <mxGeometry width="50" height="50" relative="1" as="geometry">
            <mxPoint x="720" y="135" as="sourcePoint" />
            <mxPoint x="430" y="190" as="targetPoint" />
          </mxGeometry>
        </mxCell>
        <mxCell id="4VSOPjwCIJhu8ye86NHm-37" value="" style="endArrow=classic;html=1;rounded=0;entryX=0;entryY=0.5;entryDx=0;entryDy=0;exitX=1;exitY=0.3333333333333333;exitDx=0;exitDy=0;exitPerimeter=0;" parent="1" source="4VSOPjwCIJhu8ye86NHm-1" target="4VSOPjwCIJhu8ye86NHm-31" edge="1">
          <mxGeometry width="50" height="50" relative="1" as="geometry">
            <mxPoint x="730" y="145" as="sourcePoint" />
            <mxPoint x="440" y="200" as="targetPoint" />
          </mxGeometry>
        </mxCell>
        <mxCell id="4VSOPjwCIJhu8ye86NHm-38" value="Customer" style="shape=umlActor;verticalLabelPosition=bottom;verticalAlign=top;html=1;outlineConnect=0;" parent="1" vertex="1">
          <mxGeometry x="1000" y="80" width="40" height="80" as="geometry" />
        </mxCell>
        <mxCell id="4VSOPjwCIJhu8ye86NHm-39" value="" style="rounded=0;whiteSpace=wrap;html=1;" parent="1" vertex="1">
          <mxGeometry x="1121" width="199" height="360" as="geometry" />
        </mxCell>
        <mxCell id="4VSOPjwCIJhu8ye86NHm-40" value="IT Helpdesk" style="rounded=0;whiteSpace=wrap;html=1;" parent="1" vertex="1">
          <mxGeometry x="1121" width="120" height="60" as="geometry" />
        </mxCell>
        <mxCell id="4VSOPjwCIJhu8ye86NHm-41" value="Gửi yêu cầu" style="ellipse;whiteSpace=wrap;html=1;" parent="1" vertex="1">
          <mxGeometry x="1160.5" y="65" width="120" height="80" as="geometry" />
        </mxCell>
        <mxCell id="4VSOPjwCIJhu8ye86NHm-42" value="Danh sách yêu cầu" style="ellipse;whiteSpace=wrap;html=1;" parent="1" vertex="1">
          <mxGeometry x="1160.5" y="150" width="120" height="80" as="geometry" />
        </mxCell>
        <mxCell id="4VSOPjwCIJhu8ye86NHm-43" value="Chỉnh sửa" style="ellipse;whiteSpace=wrap;html=1;" parent="1" vertex="1">
          <mxGeometry x="1160.5" y="240" width="120" height="80" as="geometry" />
        </mxCell>
        <mxCell id="4VSOPjwCIJhu8ye86NHm-45" value="Nhân viên" style="shape=umlActor;verticalLabelPosition=bottom;verticalAlign=top;html=1;outlineConnect=0;" parent="1" vertex="1">
          <mxGeometry x="1002" y="515" width="40" height="80" as="geometry" />
        </mxCell>
        <mxCell id="4VSOPjwCIJhu8ye86NHm-46" value="" style="rounded=0;whiteSpace=wrap;html=1;" parent="1" vertex="1">
          <mxGeometry x="1123" y="395" width="199" height="360" as="geometry" />
        </mxCell>
        <mxCell id="4VSOPjwCIJhu8ye86NHm-47" value="IT Helpdesk" style="rounded=0;whiteSpace=wrap;html=1;" parent="1" vertex="1">
          <mxGeometry x="1123" y="395" width="120" height="60" as="geometry" />
        </mxCell>
        <mxCell id="4VSOPjwCIJhu8ye86NHm-48" value="Nhận yêu cầu" style="ellipse;whiteSpace=wrap;html=1;" parent="1" vertex="1">
          <mxGeometry x="1162.5" y="465" width="120" height="80" as="geometry" />
        </mxCell>
        <mxCell id="4VSOPjwCIJhu8ye86NHm-49" value="Xử lý yêu cầu" style="ellipse;whiteSpace=wrap;html=1;" parent="1" vertex="1">
          <mxGeometry x="1162.5" y="555" width="120" height="80" as="geometry" />
        </mxCell>
        <mxCell id="4VSOPjwCIJhu8ye86NHm-50" value="Chuyển tiếp yêu cầu" style="ellipse;whiteSpace=wrap;html=1;" parent="1" vertex="1">
          <mxGeometry x="1162.5" y="645" width="120" height="80" as="geometry" />
        </mxCell>
        <mxCell id="4VSOPjwCIJhu8ye86NHm-55" value="" style="rounded=0;whiteSpace=wrap;html=1;" parent="1" vertex="1">
          <mxGeometry x="1600" width="199" height="360" as="geometry" />
        </mxCell>
        <mxCell id="4VSOPjwCIJhu8ye86NHm-57" value="Phòng CNTT" style="shape=umlActor;verticalLabelPosition=bottom;verticalAlign=top;html=1;outlineConnect=0;" parent="1" vertex="1">
          <mxGeometry x="1480" y="80" width="40" height="80" as="geometry" />
        </mxCell>
        <mxCell id="4VSOPjwCIJhu8ye86NHm-58" value="Quản lý yêu cầu" style="ellipse;whiteSpace=wrap;html=1;" parent="1" vertex="1">
          <mxGeometry x="1639.5" y="65" width="120" height="80" as="geometry" />
        </mxCell>
        <mxCell id="4VSOPjwCIJhu8ye86NHm-59" value="IT Helpdesk" style="rounded=0;whiteSpace=wrap;html=1;" parent="1" vertex="1">
          <mxGeometry x="1600" width="120" height="60" as="geometry" />
        </mxCell>
        <mxCell id="4VSOPjwCIJhu8ye86NHm-60" value="Xét duyệt yêu cầu" style="ellipse;whiteSpace=wrap;html=1;" parent="1" vertex="1">
          <mxGeometry x="1639.5" y="150" width="120" height="80" as="geometry" />
        </mxCell>
        <mxCell id="4VSOPjwCIJhu8ye86NHm-61" value="Điều phối" style="ellipse;whiteSpace=wrap;html=1;" parent="1" vertex="1">
          <mxGeometry x="1639.5" y="240" width="120" height="80" as="geometry" />
        </mxCell>
        <mxCell id="4VSOPjwCIJhu8ye86NHm-62" value="Super" style="shape=umlActor;verticalLabelPosition=bottom;verticalAlign=top;html=1;outlineConnect=0;" parent="1" vertex="1">
          <mxGeometry x="1482" y="515" width="40" height="80" as="geometry" />
        </mxCell>
        <mxCell id="4VSOPjwCIJhu8ye86NHm-63" value="" style="rounded=0;whiteSpace=wrap;html=1;" parent="1" vertex="1">
          <mxGeometry x="1602" y="395" width="199" height="360" as="geometry" />
        </mxCell>
        <mxCell id="4VSOPjwCIJhu8ye86NHm-64" value="Cập nhật hệ thống" style="ellipse;whiteSpace=wrap;html=1;" parent="1" vertex="1">
          <mxGeometry x="1641.5" y="465" width="120" height="80" as="geometry" />
        </mxCell>
        <mxCell id="4VSOPjwCIJhu8ye86NHm-65" value="IT Helpdesk" style="rounded=0;whiteSpace=wrap;html=1;" parent="1" vertex="1">
          <mxGeometry x="1602" y="395" width="120" height="60" as="geometry" />
        </mxCell>
        <mxCell id="4VSOPjwCIJhu8ye86NHm-66" value="Nhật ký báo lỗi" style="ellipse;whiteSpace=wrap;html=1;" parent="1" vertex="1">
          <mxGeometry x="1641.5" y="605" width="120" height="80" as="geometry" />
        </mxCell>
        <mxCell id="61hb7fd1Onu-KfQXDISh-2" value="" style="endArrow=classic;html=1;rounded=0;exitX=1;exitY=0.3333333333333333;exitDx=0;exitDy=0;exitPerimeter=0;entryX=0;entryY=0.5;entryDx=0;entryDy=0;" parent="1" source="4VSOPjwCIJhu8ye86NHm-38" target="4VSOPjwCIJhu8ye86NHm-41" edge="1">
          <mxGeometry width="50" height="50" relative="1" as="geometry">
            <mxPoint x="1310" y="250" as="sourcePoint" />
            <mxPoint x="1360" y="200" as="targetPoint" />
          </mxGeometry>
        </mxCell>
        <mxCell id="61hb7fd1Onu-KfQXDISh-3" value="" style="endArrow=classic;html=1;rounded=0;exitX=1;exitY=0.3333333333333333;exitDx=0;exitDy=0;exitPerimeter=0;entryX=0;entryY=0.5;entryDx=0;entryDy=0;" parent="1" source="4VSOPjwCIJhu8ye86NHm-38" target="4VSOPjwCIJhu8ye86NHm-42" edge="1">
          <mxGeometry width="50" height="50" relative="1" as="geometry">
            <mxPoint x="1050" y="117" as="sourcePoint" />
            <mxPoint x="1171" y="115" as="targetPoint" />
          </mxGeometry>
        </mxCell>
        <mxCell id="61hb7fd1Onu-KfQXDISh-4" value="" style="endArrow=classic;html=1;rounded=0;exitX=1;exitY=0.3333333333333333;exitDx=0;exitDy=0;exitPerimeter=0;entryX=0;entryY=0.5;entryDx=0;entryDy=0;" parent="1" source="4VSOPjwCIJhu8ye86NHm-38" target="4VSOPjwCIJhu8ye86NHm-43" edge="1">
          <mxGeometry width="50" height="50" relative="1" as="geometry">
            <mxPoint x="1060" y="127" as="sourcePoint" />
            <mxPoint x="1181" y="125" as="targetPoint" />
          </mxGeometry>
        </mxCell>
        <mxCell id="61hb7fd1Onu-KfQXDISh-5" value="" style="endArrow=classic;html=1;rounded=0;exitX=1;exitY=0.3333333333333333;exitDx=0;exitDy=0;exitPerimeter=0;entryX=0;entryY=0.5;entryDx=0;entryDy=0;" parent="1" source="4VSOPjwCIJhu8ye86NHm-45" target="4VSOPjwCIJhu8ye86NHm-48" edge="1">
          <mxGeometry width="50" height="50" relative="1" as="geometry">
            <mxPoint x="1072" y="92" as="sourcePoint" />
            <mxPoint x="1193" y="90" as="targetPoint" />
          </mxGeometry>
        </mxCell>
        <mxCell id="61hb7fd1Onu-KfQXDISh-6" value="" style="endArrow=classic;html=1;rounded=0;exitX=1;exitY=0.3333333333333333;exitDx=0;exitDy=0;exitPerimeter=0;entryX=0;entryY=0.5;entryDx=0;entryDy=0;" parent="1" source="4VSOPjwCIJhu8ye86NHm-45" target="4VSOPjwCIJhu8ye86NHm-49" edge="1">
          <mxGeometry width="50" height="50" relative="1" as="geometry">
            <mxPoint x="1082" y="102" as="sourcePoint" />
            <mxPoint x="1203" y="100" as="targetPoint" />
          </mxGeometry>
        </mxCell>
        <mxCell id="61hb7fd1Onu-KfQXDISh-7" value="" style="endArrow=classic;html=1;rounded=0;exitX=1;exitY=0.3333333333333333;exitDx=0;exitDy=0;exitPerimeter=0;entryX=0;entryY=0.5;entryDx=0;entryDy=0;" parent="1" source="4VSOPjwCIJhu8ye86NHm-45" target="4VSOPjwCIJhu8ye86NHm-50" edge="1">
          <mxGeometry width="50" height="50" relative="1" as="geometry">
            <mxPoint x="1092" y="112" as="sourcePoint" />
            <mxPoint x="1213" y="110" as="targetPoint" />
          </mxGeometry>
        </mxCell>
        <mxCell id="61hb7fd1Onu-KfQXDISh-8" value="" style="endArrow=classic;html=1;rounded=0;exitX=1;exitY=0.3333333333333333;exitDx=0;exitDy=0;exitPerimeter=0;entryX=0;entryY=0.5;entryDx=0;entryDy=0;" parent="1" source="4VSOPjwCIJhu8ye86NHm-57" target="4VSOPjwCIJhu8ye86NHm-58" edge="1">
          <mxGeometry width="50" height="50" relative="1" as="geometry">
            <mxPoint x="1100" y="167" as="sourcePoint" />
            <mxPoint x="1221" y="165" as="targetPoint" />
          </mxGeometry>
        </mxCell>
        <mxCell id="61hb7fd1Onu-KfQXDISh-9" value="" style="endArrow=classic;html=1;rounded=0;exitX=1;exitY=0.3333333333333333;exitDx=0;exitDy=0;exitPerimeter=0;entryX=0;entryY=0.5;entryDx=0;entryDy=0;" parent="1" source="4VSOPjwCIJhu8ye86NHm-57" target="4VSOPjwCIJhu8ye86NHm-60" edge="1">
          <mxGeometry width="50" height="50" relative="1" as="geometry">
            <mxPoint x="1110" y="177" as="sourcePoint" />
            <mxPoint x="1231" y="175" as="targetPoint" />
          </mxGeometry>
        </mxCell>
        <mxCell id="61hb7fd1Onu-KfQXDISh-10" value="" style="endArrow=classic;html=1;rounded=0;exitX=1;exitY=0.3333333333333333;exitDx=0;exitDy=0;exitPerimeter=0;entryX=0;entryY=0.5;entryDx=0;entryDy=0;" parent="1" source="4VSOPjwCIJhu8ye86NHm-57" target="4VSOPjwCIJhu8ye86NHm-61" edge="1">
          <mxGeometry width="50" height="50" relative="1" as="geometry">
            <mxPoint x="1120" y="187" as="sourcePoint" />
            <mxPoint x="1241" y="185" as="targetPoint" />
          </mxGeometry>
        </mxCell>
        <mxCell id="61hb7fd1Onu-KfQXDISh-11" value="" style="endArrow=classic;html=1;rounded=0;exitX=1;exitY=0.3333333333333333;exitDx=0;exitDy=0;exitPerimeter=0;entryX=0;entryY=0.5;entryDx=0;entryDy=0;" parent="1" source="4VSOPjwCIJhu8ye86NHm-62" target="4VSOPjwCIJhu8ye86NHm-66" edge="1">
          <mxGeometry width="50" height="50" relative="1" as="geometry">
            <mxPoint x="1401" y="347" as="sourcePoint" />
            <mxPoint x="1522" y="345" as="targetPoint" />
          </mxGeometry>
        </mxCell>
        <mxCell id="61hb7fd1Onu-KfQXDISh-12" value="" style="endArrow=classic;html=1;rounded=0;exitX=1;exitY=0.3333333333333333;exitDx=0;exitDy=0;exitPerimeter=0;entryX=0;entryY=0.5;entryDx=0;entryDy=0;" parent="1" source="4VSOPjwCIJhu8ye86NHm-62" target="4VSOPjwCIJhu8ye86NHm-64" edge="1">
          <mxGeometry width="50" height="50" relative="1" as="geometry">
            <mxPoint x="1142" y="162" as="sourcePoint" />
            <mxPoint x="1263" y="160" as="targetPoint" />
          </mxGeometry>
        </mxCell>
      </root>
    </mxGraphModel>
  </diagram>
</mxfile>
